<?xml version="1.0" encoding="UTF-8" standalone="no"?>
<svg
   xmlns:dc="http://purl.org/dc/elements/1.1/"
   xmlns:cc="http://creativecommons.org/ns#"
   xmlns:rdf="http://www.w3.org/1999/02/22-rdf-syntax-ns#"
   xmlns:svg="http://www.w3.org/2000/svg"
   xmlns="http://www.w3.org/2000/svg"
   viewBox="0 0 357.33334 141.33333"
   height="141.33333"
   width="357.33334"
   xml:space="preserve"
   id="svg2"
   version="1.1"><metadata
     id="metadata8"><rdf:RDF><cc:Work
         rdf:about=""><dc:format>image/svg+xml</dc:format><dc:type
           rdf:resource="http://purl.org/dc/dcmitype/StillImage" /></cc:Work></rdf:RDF></metadata><defs
     id="defs6" /><g
     transform="matrix(1.3333333,0,0,-1.3333333,0,141.33333)"
     id="g10"><g
       transform="scale(0.1)"
       id="g12"><path
         id="path14"
         style="fill:#fd0505;fill-opacity:1;fill-rule:evenodd;stroke:none"
         d="m 1052.03,533.98 c -0.35,-73 -14.18,-141.171 -41.52,-204.492 C 983.52,265.82 946.02,210 898.012,161.988 850,113.98 794.18,76.4805 730.512,49.4883 667.191,22.1484 599.02,8.32031 526.02,7.96875 453.012,8.32031 384.84,22.1484 321.52,49.4883 257.852,76.4805 202.031,113.98 154.02,161.988 106.02,210 68.5195,265.82 41.5195,329.488 14.1797,392.809 0.351563,460.98 0,533.98 c 0.351563,73.008 14.1797,141.18 41.5195,204.5 27,63.668 64.5005,119.489 112.5005,167.5 48.011,48 103.832,85.5 167.5,112.5 63.32,27.34 131.492,41.17 204.5,41.52 73,-0.35 141.171,-14.18 204.492,-41.52 63.668,-27 119.488,-64.5 167.5,-112.5 48.008,-48.011 85.508,-103.832 112.498,-167.5 27.34,-63.32 41.17,-131.492 41.52,-204.5" /><path
         id="path16"
         style="fill:#ffffff;fill-opacity:1;fill-rule:evenodd;stroke:none"
         d="m 330.512,516.988 h 120 l 28.238,23.992 29.531,168 h -120 L 360,685 Z M 490,468.98 H 226.02 l 38,216.02 84.73,71.988 h 264.02 l -38,-216.008 z" /><path
         id="path18"
         style="fill:#000000;fill-opacity:1;fill-rule:evenodd;stroke:none"
         d="m 545.512,326.988 h 120 l 28.238,23.992 29.531,168 H 579.262 Z M 705,278.98 H 441.02 l 50.742,288.008 H 827.77 l -38,-216.008 z" /><path
         id="path20"
         style="fill:#fc0206;fill-opacity:1;fill-rule:nonzero;stroke:none"
         d="m 1362.11,414.141 26.56,22.5 27.66,157.968 h -112.81 l -26.57,-22.66 -27.65,-157.808 z m -211.09,-45.161 35.78,202.969 79.53,67.821 h 248.28 l -35.78,-203.129 -79.69,-67.661 z m 557.14,45.161 26.57,22.5 27.65,157.968 h -135.31 l -31.72,-180.468 z m -211.09,-45.161 47.66,270.79 h 315.93 L 1824.88,436.641 1745.2,368.98 Z" /><path
         id="path22"
         style="fill:#fc0206;fill-opacity:1;fill-rule:nonzero;stroke:none"
         d="m 1843.16,368.98 47.66,270.79 h 90.31 l -47.65,-270.79 z" /><path
         id="path24"
         style="fill:#fc0206;fill-opacity:1;fill-rule:nonzero;stroke:none"
         d="m 1963.4,368.98 47.65,270.79 h 248.29 l 55.62,-67.821 -35.78,-202.969 h -90.16 l 35.63,202.969 -18.44,22.66 H 2093.4 L 2053.71,368.98 Z" /><path
         id="path26"
         style="fill:#fc0206;fill-opacity:1;fill-rule:nonzero;stroke:none"
         d="m 2309.49,368.98 7.97,45.161 h 203.13 l 26.56,22.5 3.9,22.66 h -225.62 l 19.84,112.648 79.53,67.821 h 248.29 l -16.1,-90.321 h -90.15 l 7.96,45.16 h -112.81 l -26.56,-22.66 -11.72,-67.648 h 225.63 l -12.04,-67.66 -79.68,-67.661 z" /></g></g></svg>